<svg xmlns="http://www.w3.org/2000/svg" version="1.1" xmlns:xlink="http://www.w3.org/1999/xlink" xmlns:svgjs="http://svgjs.com/svgjs" width="400.000000pt" height="400.000000pt"><svg version="1.0" xmlns="http://www.w3.org/2000/svg" width="400.000000pt" height="400.000000pt" viewBox="0 0 400.000000 400.000000" preserveAspectRatio="xMidYMid meet">

<g transform="translate(0.000000,400.000000) scale(0.100000,-0.100000)" fill="#000000" stroke="none">
<path d="M1100 2895 l-895 -895 898 -898 897 -897 897 897 898 898 -895 895
c-492 492 -897 895 -900 895 -3 0 -408 -403 -900 -895z m1760 -40 l855 -855
-858 -858 -857 -857 -857 857 -858 858 855 855 c470 470 857 855 860 855 3 0
390 -385 860 -855z"></path>
<path d="M1290 2531 l0 -151 -40 0 c-32 0 -40 -4 -40 -19 0 -15 7 -18 38 -17
l37 1 3 -129 3 -129 132 6 c142 6 183 16 245 64 36 27 92 131 92 171 0 15 6
22 20 22 11 0 20 7 20 15 0 8 -9 15 -20 15 -17 0 -20 7 -20 43 0 56 -50 159
-94 192 -60 46 -102 57 -243 62 l-133 6 0 -152z m259 89 c86 -25 144 -95 157
-193 l7 -47 -187 0 -186 0 0 125 0 125 88 0 c48 0 102 -4 121 -10z m153 -305
c-6 -51 -49 -112 -100 -142 -42 -25 -59 -28 -154 -32 l-108 -3 0 99 c0 55 3
103 7 107 4 3 86 5 182 4 l176 -3 -3 -30z"></path>
<path d="M2010 2032 c-167 -180 -303 -331 -302 -337 1 -5 17 -10 35 -10 31 0
57 25 338 324 167 178 306 327 307 332 2 5 -8 9 -21 9 -14 0 -31 2 -39 4 -7 2
-144 -136 -318 -322z"></path>
<path d="M2421 2028 c-75 -39 -109 -110 -87 -178 15 -46 59 -73 158 -99 181
-47 211 -69 189 -142 -10 -33 -20 -44 -54 -60 -75 -33 -180 -22 -253 27 -36
25 -38 25 -51 8 -19 -26 -13 -36 44 -67 91 -49 236 -51 311 -5 74 46 97 147
46 207 -26 31 -41 37 -251 97 -141 40 -95 185 59 184 58 -1 119 -19 147 -44
16 -15 19 -15 34 2 10 10 17 21 17 25 0 3 -21 18 -47 34 -39 22 -61 28 -132
31 -75 3 -92 0 -130 -20z"></path>
</g>
</svg><style>@media (prefers-color-scheme: light) { :root { filter: none; } }
@media (prefers-color-scheme: dark) { :root { filter: invert(100%); } }
</style></svg>