<svg id="visual" viewBox="0 0 960 540" width="960" height="540" xmlns="http://www.w3.org/2000/svg" xmlns:xlink="http://www.w3.org/1999/xlink" version="1.1"><rect x="0" y="0" width="960" height="540" fill="#212326"></rect><defs><linearGradient id="grad1_0" x1="43.8%" y1="100%" x2="100%" y2="0%"><stop offset="14.444444444444446%" stop-color="#f9c959" stop-opacity="1"></stop><stop offset="85.55555555555554%" stop-color="#f9c959" stop-opacity="1"></stop></linearGradient></defs><defs><linearGradient id="grad1_1" x1="43.8%" y1="100%" x2="100%" y2="0%"><stop offset="14.444444444444446%" stop-color="#f9c959" stop-opacity="1"></stop><stop offset="85.55555555555554%" stop-color="#f7a061" stop-opacity="1"></stop></linearGradient></defs><defs><linearGradient id="grad1_2" x1="43.8%" y1="100%" x2="100%" y2="0%"><stop offset="14.444444444444446%" stop-color="#e17e6f" stop-opacity="1"></stop><stop offset="85.55555555555554%" stop-color="#f7a061" stop-opacity="1"></stop></linearGradient></defs><defs><linearGradient id="grad1_3" x1="43.8%" y1="100%" x2="100%" y2="0%"><stop offset="14.444444444444446%" stop-color="#e17e6f" stop-opacity="1"></stop><stop offset="85.55555555555554%" stop-color="#ba6678" stop-opacity="1"></stop></linearGradient></defs><defs><linearGradient id="grad1_4" x1="43.8%" y1="100%" x2="100%" y2="0%"><stop offset="14.444444444444446%" stop-color="#8b5674" stop-opacity="1"></stop><stop offset="85.55555555555554%" stop-color="#ba6678" stop-opacity="1"></stop></linearGradient></defs><defs><linearGradient id="grad1_5" x1="43.8%" y1="100%" x2="100%" y2="0%"><stop offset="14.444444444444446%" stop-color="#8b5674" stop-opacity="1"></stop><stop offset="85.55555555555554%" stop-color="#5c4863" stop-opacity="1"></stop></linearGradient></defs><defs><linearGradient id="grad1_6" x1="43.8%" y1="100%" x2="100%" y2="0%"><stop offset="14.444444444444446%" stop-color="#373747" stop-opacity="1"></stop><stop offset="85.55555555555554%" stop-color="#5c4863" stop-opacity="1"></stop></linearGradient></defs><defs><linearGradient id="grad1_7" x1="43.8%" y1="100%" x2="100%" y2="0%"><stop offset="14.444444444444446%" stop-color="#373747" stop-opacity="1"></stop><stop offset="85.55555555555554%" stop-color="#212326" stop-opacity="1"></stop></linearGradient></defs><defs><linearGradient id="grad2_0" x1="0%" y1="100%" x2="56.3%" y2="0%"><stop offset="14.444444444444446%" stop-color="#f9c959" stop-opacity="1"></stop><stop offset="85.55555555555554%" stop-color="#f9c959" stop-opacity="1"></stop></linearGradient></defs><defs><linearGradient id="grad2_1" x1="0%" y1="100%" x2="56.3%" y2="0%"><stop offset="14.444444444444446%" stop-color="#f7a061" stop-opacity="1"></stop><stop offset="85.55555555555554%" stop-color="#f9c959" stop-opacity="1"></stop></linearGradient></defs><defs><linearGradient id="grad2_2" x1="0%" y1="100%" x2="56.3%" y2="0%"><stop offset="14.444444444444446%" stop-color="#f7a061" stop-opacity="1"></stop><stop offset="85.55555555555554%" stop-color="#e17e6f" stop-opacity="1"></stop></linearGradient></defs><defs><linearGradient id="grad2_3" x1="0%" y1="100%" x2="56.3%" y2="0%"><stop offset="14.444444444444446%" stop-color="#ba6678" stop-opacity="1"></stop><stop offset="85.55555555555554%" stop-color="#e17e6f" stop-opacity="1"></stop></linearGradient></defs><defs><linearGradient id="grad2_4" x1="0%" y1="100%" x2="56.3%" y2="0%"><stop offset="14.444444444444446%" stop-color="#ba6678" stop-opacity="1"></stop><stop offset="85.55555555555554%" stop-color="#8b5674" stop-opacity="1"></stop></linearGradient></defs><defs><linearGradient id="grad2_5" x1="0%" y1="100%" x2="56.3%" y2="0%"><stop offset="14.444444444444446%" stop-color="#5c4863" stop-opacity="1"></stop><stop offset="85.55555555555554%" stop-color="#8b5674" stop-opacity="1"></stop></linearGradient></defs><defs><linearGradient id="grad2_6" x1="0%" y1="100%" x2="56.3%" y2="0%"><stop offset="14.444444444444446%" stop-color="#5c4863" stop-opacity="1"></stop><stop offset="85.55555555555554%" stop-color="#373747" stop-opacity="1"></stop></linearGradient></defs><defs><linearGradient id="grad2_7" x1="0%" y1="100%" x2="56.3%" y2="0%"><stop offset="14.444444444444446%" stop-color="#212326" stop-opacity="1"></stop><stop offset="85.55555555555554%" stop-color="#373747" stop-opacity="1"></stop></linearGradient></defs><g transform="translate(960, 540)"><path d="M-324 0C-299.6 -27.6 -275.3 -55.1 -262.5 -85.3C-249.7 -115.4 -248.6 -148.1 -232.2 -168.7C-215.8 -189.3 -184.2 -197.7 -161.6 -222.5C-139.1 -247.3 -125.6 -288.5 -100.1 -308.1C-74.7 -327.8 -37.3 -325.9 0 -324L0 0Z" fill="#2a2d36"></path><path d="M-283.5 0C-262.2 -24.1 -240.8 -48.3 -229.7 -74.6C-218.5 -101 -217.5 -129.6 -203.2 -147.6C-188.8 -165.6 -161.2 -173 -141.4 -194.7C-121.7 -216.4 -109.9 -252.4 -87.6 -269.6C-65.4 -286.8 -32.7 -285.2 0 -283.5L0 0Z" fill="#474056"></path><path d="M-243 0C-224.7 -20.7 -206.4 -41.4 -196.9 -64C-187.3 -86.6 -186.4 -111.1 -174.1 -126.5C-161.9 -141.9 -138.2 -148.3 -121.2 -166.9C-104.3 -185.5 -94.2 -216.4 -75.1 -231.1C-56 -245.8 -28 -244.4 0 -243L0 0Z" fill="#734f6e"></path><path d="M-202.5 0C-187.3 -17.2 -172 -34.5 -164.1 -53.3C-156.1 -72.1 -155.4 -92.6 -145.1 -105.4C-134.9 -118.3 -115.1 -123.5 -101 -139C-86.9 -154.6 -78.5 -180.3 -62.6 -192.6C-46.7 -204.9 -23.3 -203.7 0 -202.5L0 0Z" fill="#a35e78"></path><path d="M-162 0C-149.8 -13.8 -137.6 -27.6 -131.2 -42.6C-124.9 -57.7 -124.3 -74.1 -116.1 -84.3C-107.9 -94.6 -92.1 -98.8 -80.8 -111.2C-69.5 -123.6 -62.8 -144.2 -50.1 -154.1C-37.3 -163.9 -18.7 -162.9 0 -162L0 0Z" fill="#cf7175"></path><path d="M-121.5 0C-112.4 -10.3 -103.2 -20.7 -98.4 -32C-93.6 -43.3 -93.2 -55.6 -87.1 -63.3C-80.9 -71 -69.1 -74.1 -60.6 -83.4C-52.2 -92.7 -47.1 -108.2 -37.5 -115.6C-28 -122.9 -14 -122.2 0 -121.5L0 0Z" fill="#ee8e69"></path><path d="M-81 0C-74.9 -6.9 -68.8 -13.8 -65.6 -21.3C-62.4 -28.9 -62.1 -37 -58 -42.2C-54 -47.3 -46.1 -49.4 -40.4 -55.6C-34.8 -61.8 -31.4 -72.1 -25 -77C-18.7 -81.9 -9.3 -81.5 0 -81L0 0Z" fill="#fbb45c"></path><path d="M-40.5 0C-37.5 -3.4 -34.4 -6.9 -32.8 -10.7C-31.2 -14.4 -31.1 -18.5 -29 -21.1C-27 -23.7 -23 -24.7 -20.2 -27.8C-17.4 -30.9 -15.7 -36.1 -12.5 -38.5C-9.3 -41 -4.7 -40.7 0 -40.5L0 0Z" fill="#f9c959"></path></g><g transform="translate(0, 0)"><path d="M324 0C308.7 28.9 293.4 57.9 287.2 93.3C281.1 128.8 284.1 170.8 262.1 190.4C240.1 210.1 193 207.5 163.4 224.9C133.8 242.3 121.7 279.7 97.3 299.6C73 319.4 36.5 321.7 0 324L0 0Z" fill="#2a2d36"></path><path d="M283.5 0C270.1 25.3 256.7 50.6 251.3 81.7C245.9 112.7 248.6 149.4 229.4 166.6C210.1 183.9 168.9 181.6 143 196.8C117.1 212 106.5 244.8 85.2 262.1C63.9 279.5 31.9 281.5 0 283.5L0 0Z" fill="#474056"></path><path d="M243 0C231.5 21.7 220 43.4 215.4 70C210.8 96.6 213.1 128.1 196.6 142.8C180.1 157.6 144.8 155.6 122.6 168.7C100.3 181.7 91.2 209.8 73 224.7C54.8 239.6 27.4 241.3 0 243L0 0Z" fill="#734f6e"></path><path d="M202.5 0C192.9 18.1 183.3 36.2 179.5 58.3C175.7 80.5 177.6 106.7 163.8 119C150.1 131.3 120.6 129.7 102.1 140.6C83.6 151.4 76 174.8 60.8 187.2C45.6 199.6 22.8 201.1 0 202.5L0 0Z" fill="#a35e78"></path><path d="M162 0C154.3 14.5 146.7 28.9 143.6 46.7C140.5 64.4 142.1 85.4 131.1 95.2C120.1 105.1 96.5 103.8 81.7 112.5C66.9 121.2 60.8 139.9 48.7 149.8C36.5 159.7 18.3 160.9 0 162L0 0Z" fill="#cf7175"></path><path d="M121.5 0C115.8 10.8 110 21.7 107.7 35C105.4 48.3 106.6 64 98.3 71.4C90 78.8 72.4 77.8 61.3 84.3C50.2 90.9 45.6 104.9 36.5 112.3C27.4 119.8 13.7 120.6 0 121.5L0 0Z" fill="#ee8e69"></path><path d="M81 0C77.2 7.2 73.3 14.5 71.8 23.3C70.3 32.2 71 42.7 65.5 47.6C60 52.5 48.3 51.9 40.9 56.2C33.4 60.6 30.4 69.9 24.3 74.9C18.3 79.9 9.1 80.4 0 81L0 0Z" fill="#fbb45c"></path><path d="M40.5 0C38.6 3.6 36.7 7.2 35.9 11.7C35.1 16.1 35.5 21.3 32.8 23.8C30 26.3 24.1 25.9 20.4 28.1C16.7 30.3 15.2 35 12.2 37.4C9.1 39.9 4.6 40.2 0 40.5L0 0Z" fill="#f9c959"></path></g></svg>