<svg id="visual" viewBox="0 0 960 540" width="960" height="540" xmlns="http://www.w3.org/2000/svg" xmlns:xlink="http://www.w3.org/1999/xlink" version="1.1"><rect x="0" y="0" width="960" height="540" fill="#212326"></rect><defs><linearGradient id="grad1_0" x1="43.8%" y1="0%" x2="100%" y2="100%"><stop offset="14.444444444444446%" stop-color="#f9c959" stop-opacity="1"></stop><stop offset="85.55555555555554%" stop-color="#f9c959" stop-opacity="1"></stop></linearGradient></defs><defs><linearGradient id="grad1_1" x1="43.8%" y1="0%" x2="100%" y2="100%"><stop offset="14.444444444444446%" stop-color="#f9c959" stop-opacity="1"></stop><stop offset="85.55555555555554%" stop-color="#f7a061" stop-opacity="1"></stop></linearGradient></defs><defs><linearGradient id="grad1_2" x1="43.8%" y1="0%" x2="100%" y2="100%"><stop offset="14.444444444444446%" stop-color="#e17e6f" stop-opacity="1"></stop><stop offset="85.55555555555554%" stop-color="#f7a061" stop-opacity="1"></stop></linearGradient></defs><defs><linearGradient id="grad1_3" x1="43.8%" y1="0%" x2="100%" y2="100%"><stop offset="14.444444444444446%" stop-color="#e17e6f" stop-opacity="1"></stop><stop offset="85.55555555555554%" stop-color="#ba6678" stop-opacity="1"></stop></linearGradient></defs><defs><linearGradient id="grad1_4" x1="43.8%" y1="0%" x2="100%" y2="100%"><stop offset="14.444444444444446%" stop-color="#8b5674" stop-opacity="1"></stop><stop offset="85.55555555555554%" stop-color="#ba6678" stop-opacity="1"></stop></linearGradient></defs><defs><linearGradient id="grad1_5" x1="43.8%" y1="0%" x2="100%" y2="100%"><stop offset="14.444444444444446%" stop-color="#8b5674" stop-opacity="1"></stop><stop offset="85.55555555555554%" stop-color="#5c4863" stop-opacity="1"></stop></linearGradient></defs><defs><linearGradient id="grad1_6" x1="43.8%" y1="0%" x2="100%" y2="100%"><stop offset="14.444444444444446%" stop-color="#373747" stop-opacity="1"></stop><stop offset="85.55555555555554%" stop-color="#5c4863" stop-opacity="1"></stop></linearGradient></defs><defs><linearGradient id="grad1_7" x1="43.8%" y1="0%" x2="100%" y2="100%"><stop offset="14.444444444444446%" stop-color="#373747" stop-opacity="1"></stop><stop offset="85.55555555555554%" stop-color="#212326" stop-opacity="1"></stop></linearGradient></defs><defs><linearGradient id="grad2_0" x1="0%" y1="0%" x2="56.3%" y2="100%"><stop offset="14.444444444444446%" stop-color="#f9c959" stop-opacity="1"></stop><stop offset="85.55555555555554%" stop-color="#f9c959" stop-opacity="1"></stop></linearGradient></defs><defs><linearGradient id="grad2_1" x1="0%" y1="0%" x2="56.3%" y2="100%"><stop offset="14.444444444444446%" stop-color="#f7a061" stop-opacity="1"></stop><stop offset="85.55555555555554%" stop-color="#f9c959" stop-opacity="1"></stop></linearGradient></defs><defs><linearGradient id="grad2_2" x1="0%" y1="0%" x2="56.3%" y2="100%"><stop offset="14.444444444444446%" stop-color="#f7a061" stop-opacity="1"></stop><stop offset="85.55555555555554%" stop-color="#e17e6f" stop-opacity="1"></stop></linearGradient></defs><defs><linearGradient id="grad2_3" x1="0%" y1="0%" x2="56.3%" y2="100%"><stop offset="14.444444444444446%" stop-color="#ba6678" stop-opacity="1"></stop><stop offset="85.55555555555554%" stop-color="#e17e6f" stop-opacity="1"></stop></linearGradient></defs><defs><linearGradient id="grad2_4" x1="0%" y1="0%" x2="56.3%" y2="100%"><stop offset="14.444444444444446%" stop-color="#ba6678" stop-opacity="1"></stop><stop offset="85.55555555555554%" stop-color="#8b5674" stop-opacity="1"></stop></linearGradient></defs><defs><linearGradient id="grad2_5" x1="0%" y1="0%" x2="56.3%" y2="100%"><stop offset="14.444444444444446%" stop-color="#5c4863" stop-opacity="1"></stop><stop offset="85.55555555555554%" stop-color="#8b5674" stop-opacity="1"></stop></linearGradient></defs><defs><linearGradient id="grad2_6" x1="0%" y1="0%" x2="56.3%" y2="100%"><stop offset="14.444444444444446%" stop-color="#5c4863" stop-opacity="1"></stop><stop offset="85.55555555555554%" stop-color="#373747" stop-opacity="1"></stop></linearGradient></defs><defs><linearGradient id="grad2_7" x1="0%" y1="0%" x2="56.3%" y2="100%"><stop offset="14.444444444444446%" stop-color="#212326" stop-opacity="1"></stop><stop offset="85.55555555555554%" stop-color="#373747" stop-opacity="1"></stop></linearGradient></defs><g transform="translate(960, 0)"><path d="M0 324C-33.9 321.1 -67.8 318.2 -100.1 308.1C-132.5 298.1 -163.3 280.9 -186.9 257.3C-210.5 233.6 -226.9 203.5 -241.1 175.2C-255.2 146.8 -267.1 120.1 -280.6 91.2C-294 62.2 -309 31.1 -324 0L0 0Z" fill="#2a2d36"></path><path d="M0 283.5C-29.6 281 -59.3 278.4 -87.6 269.6C-115.9 260.8 -142.9 245.8 -163.6 225.1C-184.2 204.4 -198.6 178.1 -211 153.3C-223.3 128.4 -233.7 105.1 -245.5 79.8C-257.3 54.5 -270.4 27.2 -283.5 0L0 0Z" fill="#474056"></path><path d="M0 243C-25.4 240.8 -50.8 238.6 -75.1 231.1C-99.4 223.6 -122.5 210.7 -140.2 193C-157.9 175.2 -170.2 152.7 -180.8 131.4C-191.4 110.1 -200.3 90.1 -210.4 68.4C-220.5 46.7 -231.8 23.3 -243 0L0 0Z" fill="#734f6e"></path><path d="M0 202.5C-21.2 200.7 -42.4 198.9 -62.6 192.6C-82.8 186.3 -102.1 175.6 -116.8 160.8C-131.6 146 -141.8 127.2 -150.7 109.5C-159.5 91.7 -166.9 75 -175.4 57C-183.8 38.9 -193.1 19.5 -202.5 0L0 0Z" fill="#a35e78"></path><path d="M0 162C-16.9 160.5 -33.9 159.1 -50.1 154.1C-66.2 149 -81.6 140.5 -93.5 128.6C-105.3 116.8 -113.5 101.8 -120.5 87.6C-127.6 73.4 -133.6 60 -140.3 45.6C-147 31.1 -154.5 15.6 -162 0L0 0Z" fill="#cf7175"></path><path d="M0 121.5C-12.7 120.4 -25.4 119.3 -37.5 115.6C-49.7 111.8 -61.2 105.3 -70.1 96.5C-78.9 87.6 -85.1 76.3 -90.4 65.7C-95.7 55 -100.2 45 -105.2 34.2C-110.3 23.3 -115.9 11.7 -121.5 0L0 0Z" fill="#ee8e69"></path><path d="M0 81C-8.5 80.3 -16.9 79.5 -25 77C-33.1 74.5 -40.8 70.2 -46.7 64.3C-52.6 58.4 -56.7 50.9 -60.3 43.8C-63.8 36.7 -66.8 30 -70.1 22.8C-73.5 15.6 -77.3 7.8 -81 0L0 0Z" fill="#fbb45c"></path><path d="M0 40.5C-4.2 40.1 -8.5 39.8 -12.5 38.5C-16.6 37.3 -20.4 35.1 -23.4 32.2C-26.3 29.2 -28.4 25.4 -30.1 21.9C-31.9 18.3 -33.4 15 -35.1 11.4C-36.8 7.8 -38.6 3.9 -40.5 0L0 0Z" fill="#f9c959"></path></g><g transform="translate(0, 540)"><path d="M0 -324C35.3 -323 70.6 -322 100.1 -308.1C129.6 -294.3 153.2 -267.7 177.5 -244.3C201.8 -221 226.8 -200.9 241.1 -175.2C255.4 -149.5 259 -118.2 271.1 -88.1C283.1 -57.9 303.5 -29 324 0L0 0Z" fill="#2a2d36"></path><path d="M0 -283.5C30.9 -282.6 61.8 -281.7 87.6 -269.6C113.4 -257.5 134.1 -234.2 155.3 -213.8C176.6 -193.3 198.4 -175.7 211 -153.3C223.5 -130.8 226.6 -103.4 237.2 -77.1C247.7 -50.7 265.6 -25.4 283.5 0L0 0Z" fill="#474056"></path><path d="M0 -243C26.5 -242.2 53 -241.5 75.1 -231.1C97.2 -220.7 114.9 -200.8 133.1 -183.2C151.4 -165.7 170.1 -150.6 180.8 -131.4C191.5 -112.1 194.3 -88.6 203.3 -66.1C212.3 -43.5 227.7 -21.7 243 0L0 0Z" fill="#734f6e"></path><path d="M0 -202.5C22.1 -201.9 44.2 -201.2 62.6 -192.6C81 -183.9 95.8 -167.3 110.9 -152.7C126.1 -138.1 141.7 -125.5 150.7 -109.5C159.6 -93.4 161.9 -73.9 169.4 -55C176.9 -36.2 189.7 -18.1 202.5 0L0 0Z" fill="#a35e78"></path><path d="M0 -162C17.7 -161.5 35.3 -161 50.1 -154.1C64.8 -147.2 76.6 -133.8 88.8 -122.2C100.9 -110.5 113.4 -100.4 120.5 -87.6C127.7 -74.7 129.5 -59.1 135.5 -44C141.5 -29 151.8 -14.5 162 0L0 0Z" fill="#cf7175"></path><path d="M0 -121.5C13.2 -121.1 26.5 -120.7 37.5 -115.6C48.6 -110.4 57.5 -100.4 66.6 -91.6C75.7 -82.9 85 -75.3 90.4 -65.7C95.8 -56.1 97.1 -44.3 101.6 -33C106.2 -21.7 113.8 -10.9 121.5 0L0 0Z" fill="#ee8e69"></path><path d="M0 -81C8.8 -80.7 17.7 -80.5 25 -77C32.4 -73.6 38.3 -66.9 44.4 -61.1C50.5 -55.2 56.7 -50.2 60.3 -43.8C63.8 -37.4 64.8 -29.5 67.8 -22C70.8 -14.5 75.9 -7.2 81 0L0 0Z" fill="#fbb45c"></path><path d="M0 -40.5C4.4 -40.4 8.8 -40.2 12.5 -38.5C16.2 -36.8 19.2 -33.5 22.2 -30.5C25.2 -27.6 28.3 -25.1 30.1 -21.9C31.9 -18.7 32.4 -14.8 33.9 -11C35.4 -7.2 37.9 -3.6 40.5 0L0 0Z" fill="#f9c959"></path></g></svg>