<svg id="visual" viewBox="0 0 960 540" width="960" height="540" xmlns="http://www.w3.org/2000/svg" xmlns:xlink="http://www.w3.org/1999/xlink" version="1.1"><rect x="0" y="0" width="960" height="540" fill="#fff"></rect><defs><linearGradient id="grad1_0" x1="43.8%" y1="0%" x2="100%" y2="100%"><stop offset="14.444444444444446%" stop-color="#009473" stop-opacity="1"></stop><stop offset="85.55555555555554%" stop-color="#009473" stop-opacity="1"></stop></linearGradient></defs><defs><linearGradient id="grad1_1" x1="43.8%" y1="0%" x2="100%" y2="100%"><stop offset="14.444444444444446%" stop-color="#009473" stop-opacity="1"></stop><stop offset="85.55555555555554%" stop-color="#52aa8d" stop-opacity="1"></stop></linearGradient></defs><defs><linearGradient id="grad1_2" x1="43.8%" y1="0%" x2="100%" y2="100%"><stop offset="14.444444444444446%" stop-color="#80bfa9" stop-opacity="1"></stop><stop offset="85.55555555555554%" stop-color="#52aa8d" stop-opacity="1"></stop></linearGradient></defs><defs><linearGradient id="grad1_3" x1="43.8%" y1="0%" x2="100%" y2="100%"><stop offset="14.444444444444446%" stop-color="#80bfa9" stop-opacity="1"></stop><stop offset="85.55555555555554%" stop-color="#abd4c5" stop-opacity="1"></stop></linearGradient></defs><defs><linearGradient id="grad1_4" x1="43.8%" y1="0%" x2="100%" y2="100%"><stop offset="14.444444444444446%" stop-color="#d5eae1" stop-opacity="1"></stop><stop offset="85.55555555555554%" stop-color="#abd4c5" stop-opacity="1"></stop></linearGradient></defs><defs><linearGradient id="grad1_5" x1="43.8%" y1="0%" x2="100%" y2="100%"><stop offset="14.444444444444446%" stop-color="#d5eae1" stop-opacity="1"></stop><stop offset="85.55555555555554%" stop-color="#ffffff" stop-opacity="1"></stop></linearGradient></defs><defs><linearGradient id="grad2_0" x1="0%" y1="0%" x2="56.3%" y2="100%"><stop offset="14.444444444444446%" stop-color="#009473" stop-opacity="1"></stop><stop offset="85.55555555555554%" stop-color="#009473" stop-opacity="1"></stop></linearGradient></defs><defs><linearGradient id="grad2_1" x1="0%" y1="0%" x2="56.3%" y2="100%"><stop offset="14.444444444444446%" stop-color="#52aa8d" stop-opacity="1"></stop><stop offset="85.55555555555554%" stop-color="#009473" stop-opacity="1"></stop></linearGradient></defs><defs><linearGradient id="grad2_2" x1="0%" y1="0%" x2="56.3%" y2="100%"><stop offset="14.444444444444446%" stop-color="#52aa8d" stop-opacity="1"></stop><stop offset="85.55555555555554%" stop-color="#80bfa9" stop-opacity="1"></stop></linearGradient></defs><defs><linearGradient id="grad2_3" x1="0%" y1="0%" x2="56.3%" y2="100%"><stop offset="14.444444444444446%" stop-color="#abd4c5" stop-opacity="1"></stop><stop offset="85.55555555555554%" stop-color="#80bfa9" stop-opacity="1"></stop></linearGradient></defs><defs><linearGradient id="grad2_4" x1="0%" y1="0%" x2="56.3%" y2="100%"><stop offset="14.444444444444446%" stop-color="#abd4c5" stop-opacity="1"></stop><stop offset="85.55555555555554%" stop-color="#d5eae1" stop-opacity="1"></stop></linearGradient></defs><defs><linearGradient id="grad2_5" x1="0%" y1="0%" x2="56.3%" y2="100%"><stop offset="14.444444444444446%" stop-color="#ffffff" stop-opacity="1"></stop><stop offset="85.55555555555554%" stop-color="#d5eae1" stop-opacity="1"></stop></linearGradient></defs><g transform="translate(960, 0)"><path d="M0 270C-30.1 270.5 -60.1 270.9 -83.4 256.8C-106.7 242.6 -123.3 213.9 -139.3 191.7C-155.3 169.6 -170.9 154.1 -188.5 137C-206.1 119.8 -225.7 101 -239.7 77.9C-253.6 54.8 -261.8 27.4 -270 0L0 0Z" fill="#eaf4f0"></path><path d="M0 225C-25.1 225.4 -50.1 225.8 -69.5 214C-88.9 202.2 -102.7 178.2 -116.1 159.8C-129.5 141.3 -142.4 128.4 -157.1 114.1C-171.7 99.8 -188.1 84.1 -199.7 64.9C-211.3 45.6 -218.2 22.8 -225 0L0 0Z" fill="#c0dfd3"></path><path d="M0 180C-20 180.3 -40.1 180.6 -55.6 171.2C-71.2 161.8 -82.2 142.6 -92.9 127.8C-103.6 113.1 -113.9 102.7 -125.7 91.3C-137.4 79.9 -150.5 67.3 -159.8 51.9C-169.1 36.5 -174.5 18.3 -180 0L0 0Z" fill="#96cab7"></path><path d="M0 135C-15 135.2 -30.1 135.5 -41.7 128.4C-53.4 121.3 -61.6 106.9 -69.7 95.9C-77.7 84.8 -85.5 77.1 -94.3 68.5C-103 59.9 -112.9 50.5 -119.8 38.9C-126.8 27.4 -130.9 13.7 -135 0L0 0Z" fill="#6ab49b"></path><path d="M0 90C-10 90.2 -20 90.3 -27.8 85.6C-35.6 80.9 -41.1 71.3 -46.4 63.9C-51.8 56.5 -57 51.4 -62.8 45.7C-68.7 39.9 -75.2 33.7 -79.9 26C-84.5 18.3 -87.3 9.1 -90 0L0 0Z" fill="#369f80"></path><path d="M0 45C-5 45.1 -10 45.2 -13.9 42.8C-17.8 40.4 -20.5 35.6 -23.2 32C-25.9 28.3 -28.5 25.7 -31.4 22.8C-34.3 20 -37.6 16.8 -39.9 13C-42.3 9.1 -43.6 4.6 -45 0L0 0Z" fill="#009473"></path></g><g transform="translate(0, 540)"><path d="M0 -270C26.7 -257.6 53.5 -245.3 75.4 -232.1C97.3 -218.8 114.5 -204.8 141.7 -195C168.9 -185.2 206.1 -179.7 218.4 -158.7C230.7 -137.7 218.1 -101.3 222.5 -72.3C227 -43.3 248.5 -21.6 270 0L0 0Z" fill="#eaf4f0"></path><path d="M0 -225C22.3 -214.7 44.6 -204.4 62.8 -193.4C81.1 -182.4 95.4 -170.6 118 -162.5C140.7 -154.3 171.8 -149.7 182 -132.3C192.3 -114.8 181.8 -84.4 185.5 -60.3C189.2 -36.1 207.1 -18 225 0L0 0Z" fill="#c0dfd3"></path><path d="M0 -180C17.8 -171.8 35.6 -163.5 50.3 -154.7C64.9 -145.9 76.3 -136.5 94.4 -130C112.6 -123.5 137.4 -119.8 145.6 -105.8C153.8 -91.8 145.4 -67.6 148.4 -48.2C151.3 -28.9 165.7 -14.4 180 0L0 0Z" fill="#96cab7"></path><path d="M0 -135C13.4 -128.8 26.7 -122.6 37.7 -116C48.7 -109.4 57.2 -102.4 70.8 -97.5C84.4 -92.6 103.1 -89.8 109.2 -79.4C115.4 -68.9 109.1 -50.7 111.3 -36.2C113.5 -21.6 124.2 -10.8 135 0L0 0Z" fill="#6ab49b"></path><path d="M0 -90C8.9 -85.9 17.8 -81.8 25.1 -77.4C32.4 -72.9 38.2 -68.3 47.2 -65C56.3 -61.7 68.7 -59.9 72.8 -52.9C76.9 -45.9 72.7 -33.8 74.2 -24.1C75.7 -14.4 82.8 -7.2 90 0L0 0Z" fill="#369f80"></path><path d="M0 -45C4.5 -42.9 8.9 -40.9 12.6 -38.7C16.2 -36.5 19.1 -34.1 23.6 -32.5C28.1 -30.9 34.4 -29.9 36.4 -26.5C38.5 -23 36.4 -16.9 37.1 -12.1C37.8 -7.2 41.4 -3.6 45 0L0 0Z" fill="#009473"></path></g></svg>